<?xml version="1.0" encoding="UTF-8" standalone="no"?>
<svg
   width="24"
   height="24"
   fill-rule="evenodd"
   clip-rule="evenodd"
   version="1.1"
   id="svg4"
   sodipodi:docname="logo statify.svg"
   inkscape:version="1.1.2 (b8e25be833, 2022-02-05)"
   xmlns:inkscape="http://www.inkscape.org/namespaces/inkscape"
   xmlns:sodipodi="http://sodipodi.sourceforge.net/DTD/sodipodi-0.dtd"
   xmlns="http://www.w3.org/2000/svg"
   xmlns:svg="http://www.w3.org/2000/svg">
  <defs
     id="defs8" />
  <sodipodi:namedview
     id="namedview6"
     pagecolor="#ffffff"
     bordercolor="#666666"
     borderopacity="1.0"
     inkscape:pageshadow="2"
     inkscape:pageopacity="0.0"
     inkscape:pagecheckerboard="0"
     showgrid="false"
     inkscape:zoom="32"
     inkscape:cx="6.015625"
     inkscape:cy="11.96875"
     inkscape:window-width="1920"
     inkscape:window-height="1017"
     inkscape:window-x="-8"
     inkscape:window-y="-8"
     inkscape:window-maximized="1"
     inkscape:current-layer="svg4" />
  <text
     xml:space="preserve"
     style="font-style:normal;font-weight:normal;font-size:3.71494px;line-height:1.25;font-family:sans-serif;fill:#000000;fill-opacity:1;stroke:none;stroke-width:0.107028;stroke-miterlimit:4;stroke-dasharray:none"
     x="6.2556124"
     y="23.147837"
     id="text16405"><tspan
       sodipodi:role="line"
       id="tspan16403"
       x="6.2556124"
       y="23.147837"
       style="font-style:italic;font-variant:normal;font-weight:normal;font-stretch:normal;font-family:Ubuntu;-inkscape-font-specification:'Ubuntu Italic';stroke:#000000;stroke-width:0.107028;stroke-miterlimit:4;stroke-dasharray:none;stroke-opacity:1">Stat<tspan
   style="fill:#1dff54;fill-opacity:1"
   id="tspan10112">ify</tspan></tspan></text>
  <ellipse
     style="fill:#1dff54;fill-opacity:0;fill-rule:evenodd;stroke:#000000;stroke-width:0.133771;stroke-opacity:1"
     id="path31-0"
     ry="9.4867582"
     rx="9.6674557"
     cy="9.8006811"
     cx="12.144693" />
  <ellipse
     style="fill:#1dff54;fill-opacity:1;fill-rule:evenodd;stroke:none;stroke-width:0.132919;stroke-opacity:1"
     id="path31-7"
     ry="9.4262352"
     rx="9.6057806"
     cy="9.7918491"
     cx="12.154345" />
  <path
     style="fill:#0075ff;fill-opacity:0.88617897;fill-rule:evenodd;stroke:none;stroke-width:0.403174;stroke-opacity:1"
     id="path31-7-17"
     sodipodi:type="arc"
     sodipodi:cx="12.15319"
     sodipodi:cy="9.7894287"
     sodipodi:rx="9.6057806"
     sodipodi:ry="9.4262352"
     sodipodi:start="2.6472984"
     sodipodi:end="4.7145199"
     sodipodi:arc-type="slice"
     d="M 3.697185,14.261334 A 9.6057806,9.4262352 0 0 1 3.9108546,4.9485892 9.6057806,9.4262352 0 0 1 12.173659,0.36321491 L 12.15319,9.7894287 Z" />
  <path
     style="fill:#ff2325;fill-opacity:1;fill-rule:evenodd;stroke:none;stroke-width:0.403174;stroke-opacity:1"
     id="path31-7-1"
     sodipodi:type="arc"
     sodipodi:cx="12.154345"
     sodipodi:cy="9.7918491"
     sodipodi:rx="9.6059999"
     sodipodi:ry="9.4262352"
     sodipodi:start="0.2319091"
     sodipodi:end="2.6549588"
     sodipodi:arc-type="slice"
     d="M 21.503186,11.958337 A 9.6059999,9.4262352 0 0 1 13.374483,19.141735 9.6059999,9.4262352 0 0 1 3.6634854,14.200058 L 12.154345,9.7918491 Z" />
  <path
     d="M 17.334875,6.6434078 C 13.97062,5.2927789 9.1307773,6.1972401 6.5769685,7.8091508 6.1672453,8.0680137 5.6292937,7.8820898 5.3761421,7.3940185 5.1226703,6.9046006 5.2481174,6.2985747 5.660267,6.0393768 8.5915324,4.1884982 13.938431,3.2034037 17.812578,4.757335 c 0.464463,0.1858297 0.73253,0.7604388 0.601587,1.2805521 -0.132133,0.5203251 -0.61596,0.7918352 -1.079284,0.6056109 z"
     id="path18"
     style="stroke-width:1.24813" />
  <path
     d="M 17.917016,9.6452908 C 17.800206,10.076539 17.394665,10.29574 17.010498,10.134332 14.191298,8.9486035 10.380344,9.2864835 7.7414521,10.95206 7.398822,11.166659 6.9509482,11.012402 6.7399333,10.604912 6.5287598,10.19705 6.6333967,9.693783 6.9769864,9.476452 9.9904847,7.5751079 14.191581,7.2107743 17.429839,8.5705986 c 0.384457,0.1627782 0.602754,0.643503 0.487155,1.0744787 z"
     id="path16"
     style="stroke-width:1.24813" />
  <path
     d="m 17.462649,12.756912 c -0.09202,0.346872 -0.416172,0.522707 -0.724173,0.393739 C 14.277944,12.12379 11.5331,12.388063 8.5818926,13.937354 8.2982193,14.08739 7.9468989,13.935041 7.7967064,13.597715 7.6479251,13.26133 7.7566869,12.867832 8.0418501,12.718796 c 3.2296549,-1.696269 6.2672899,-1.97178 9.0300819,-0.820249 0.308109,0.128798 0.483044,0.513245 0.390645,0.85882 z"
     id="path14"
     style="stroke-width:1.24813" />
</svg>
