<?xml version="1.0" encoding="UTF-8" standalone="no"?>
<svg
   width="24"
   height="24"
   fill-rule="evenodd"
   clip-rule="evenodd"
   version="1.1"
   id="svg4"
   sodipodi:docname="logo statify.svg"
   inkscape:version="1.1.2 (b8e25be833, 2022-02-05)"
   xmlns:inkscape="http://www.inkscape.org/namespaces/inkscape"
   xmlns:sodipodi="http://sodipodi.sourceforge.net/DTD/sodipodi-0.dtd"
   xmlns="http://www.w3.org/2000/svg"
   xmlns:svg="http://www.w3.org/2000/svg">
  <defs
     id="defs8" />
  <sodipodi:namedview
     id="namedview6"
     pagecolor="#ffffff"
     bordercolor="#666666"
     borderopacity="1.0"
     inkscape:pageshadow="2"
     inkscape:pageopacity="0.0"
     inkscape:pagecheckerboard="0"
     showgrid="false"
     inkscape:zoom="32"
     inkscape:cx="10.234375"
     inkscape:cy="13.96875"
     inkscape:window-width="1920"
     inkscape:window-height="1017"
     inkscape:window-x="-8"
     inkscape:window-y="-8"
     inkscape:window-maximized="1"
     inkscape:current-layer="svg4" />
  <text
     xml:space="preserve"
     style="font-style:normal;font-weight:normal;font-size:3.71494px;line-height:1.25;font-family:sans-serif;fill:#000000;fill-opacity:1;stroke:none;stroke-width:0.107028;stroke-miterlimit:4;stroke-dasharray:none"
     x="6.2556124"
     y="23.147837"
     id="text16405"><tspan
       sodipodi:role="line"
       id="tspan16403"
       x="6.2556124"
       y="23.147837"
       style="font-style:italic;font-variant:normal;font-weight:normal;font-stretch:normal;font-family:Ubuntu;-inkscape-font-specification:'Ubuntu Italic';stroke:#000000;stroke-width:0.107028;stroke-miterlimit:4;stroke-dasharray:none;stroke-opacity:1"><tspan
         style="fill:#012000;fill-opacity:1"
         id="tspan1742">Stat</tspan><tspan
         style="fill:#1dff54;fill-opacity:1"
         id="tspan10112">ify</tspan></tspan></text>
  <ellipse
     style="fill:#1dff54;fill-opacity:0;fill-rule:evenodd;stroke:#000000;stroke-width:0.133771;stroke-opacity:1"
     id="path31-0"
     ry="9.4867582"
     rx="9.6674557"
     cy="9.8006811"
     cx="12.144693" />
  <ellipse
     style="fill:#1dff54;fill-opacity:1;fill-rule:evenodd;stroke:none;stroke-width:0.132919;stroke-opacity:1"
     id="path31-7"
     ry="9.4262352"
     rx="9.6057806"
     cy="9.7918491"
     cx="12.154345" />
  <path
     style="fill:#9dff73;fill-opacity:0.88617897;fill-rule:evenodd;stroke:none;stroke-width:0.403174;stroke-opacity:1"
     id="path31-7-17"
     sodipodi:type="arc"
     sodipodi:cx="12.15319"
     sodipodi:cy="9.7894287"
     sodipodi:rx="9.6057806"
     sodipodi:ry="9.4262352"
     sodipodi:start="2.6472984"
     sodipodi:end="4.7145199"
     sodipodi:arc-type="slice"
     d="M 3.697185,14.261334 A 9.6057806,9.4262352 0 0 1 3.9108546,4.9485892 9.6057806,9.4262352 0 0 1 12.173659,0.36321491 L 12.15319,9.7894287 Z" />
  <path
     style="fill:#5c8243;fill-opacity:1;fill-rule:evenodd;stroke:none;stroke-width:0.40440945;stroke-opacity:1;stroke-miterlimit:4;stroke-dasharray:none"
     id="path31-7-1"
     sodipodi:type="arc"
     sodipodi:cx="12.154345"
     sodipodi:cy="9.7918491"
     sodipodi:rx="9.6059999"
     sodipodi:ry="9.4262352"
     sodipodi:start="0.2319091"
     sodipodi:end="2.6549588"
     sodipodi:arc-type="slice"
     d="M 21.503186,11.958337 A 9.6059999,9.4262352 0 0 1 13.374483,19.141735 9.6059999,9.4262352 0 0 1 3.6634854,14.200058 L 12.154345,9.7918491 Z" />
  <path
     d="M 10.05934,6.8618339 C 8.203168,6.1166474 5.532868,6.6156684 4.1238472,7.5050127 3.8977894,7.6478359 3.6009838,7.5452555 3.4613117,7.2759705 3.321463,7.0059425 3.3906763,6.6715781 3.6180728,6.5285701 5.235349,5.5073793 8.185409,4.9638703 10.322904,5.8212254 c 0.25626,0.1025283 0.404161,0.4195591 0.331916,0.7065227 -0.0729,0.2870805 -0.339846,0.4368816 -0.595477,0.3341355 z"
     id="path18"
     style="fill:#003e00;fill-opacity:1;stroke:none;stroke-width:0.0834115;stroke-miterlimit:4;stroke-dasharray:none;stroke-opacity:1" />
  <path
     d="M 19.67843,6.4818348 C 17.845758,5.6805917 15.161527,6.0982438 13.726134,6.944364 13.495841,7.080252 13.202289,6.9687 13.070864,6.695296 12.939285,6.421143 13.018625,6.0890361 13.250263,5.9530037 c 1.647559,-0.9715775 4.612772,-1.4251968 6.723228,-0.5032883 0.253027,0.1102675 0.391226,0.431646 0.310295,0.7162819 -0.08159,0.2847328 -0.352964,0.4263537 -0.605355,0.3158873 z"
     id="path18-0"
     style="fill:#003e00;fill-opacity:1;stroke:none;stroke-width:0.0834115;stroke-miterlimit:4;stroke-dasharray:none;stroke-opacity:1" />
  <path
     d="m 7.7202722,14.006324 c 0.098175,-0.345181 0.4254029,-0.515223 0.7310613,-0.380797 2.4418795,1.070461 5.1909895,0.855049 8.1692855,-0.641508 0.286297,-0.144967 0.634852,0.01359 0.779021,0.353551 0.142775,0.338978 0.02703,0.730479 -0.260737,0.874419 -3.259313,1.638559 -6.301368,1.86 -9.0432423,0.659513 C 7.7898912,14.737244 7.6218215,14.349747 7.7203522,14.00587 Z"
     id="path14"
     style="fill:#003e00;fill-opacity:1;stroke:none;stroke-width:0.151181;stroke-miterlimit:4;stroke-dasharray:none;stroke-opacity:1" />
</svg>
